<?xml version="1.0" encoding="utf-8"?>
<!-- Generator: Adobe Illustrator 22.1.0, SVG Export Plug-In . SVG Version: 6.00 Build 0)  -->
<svg version="1.1" id="Layer_1" xmlns="http://www.w3.org/2000/svg" xmlns:xlink="http://www.w3.org/1999/xlink" x="0px" y="0px"
	 viewBox="0 0 512 512" style="enable-background:new 0 0 512 512;" xml:space="preserve">
<style type="text/css">
	.st0{display:none;}
	.st1{fill:#42A5F5;}
</style>
<g id="Layer_2">
	<circle class="st0" cx="60.8" cy="69.5" r="46.2"/>
	<circle class="st0" cx="62.5" cy="453.8" r="45.2"/>
	<circle class="st0" cx="451.8" cy="454.8" r="45.8"/>
	<rect x="42.3" y="115" width="35.7" height="298.3"/>
	<rect x="62.5" y="246.7" width="95.8" height="26.7"/>
	<rect x="105.5" y="57.3" width="224.5" height="32.3"/>
	<rect x="433.3" y="167" width="29" height="246.3"/>
	<rect x="241.7" y="343" width="28.3" height="107.3"/>
	<rect x="102.4" y="443" width="305.2" height="23.8"/>
</g>
<g id="Layer_3">
	<polygon class="st1" points="203.8,304.8 253.7,290.7 216.5,254.5 	"/>
	
		<rect x="189" y="115.6" transform="matrix(0.7071 -0.7071 0.7071 0.7071 -1.2186 296.3913)" class="st1" width="336.3" height="68.1"/>
</g>
<path d="M471.1,405.8V178.1c0-13.5-11-24.5-24.5-24.5s-24.5,11-24.5,24.5v232c-8.8,5.4-15.8,13.1-20.4,22.3H279.4v-80.1
	c0-13.5-11-24.5-24.5-24.5s-24.5,11-24.5,24.5v80.1H109.2c-5.5-11.1-14.6-20-25.8-25.3V285.4H146c13.5,0,24.5-11,24.5-24.5
	c0-13.5-11-24.5-24.5-24.5H83.3V122.2c10.8-5.1,19.7-13.6,25.3-24.2h211.7c13.5,0,24.5-11,24.5-24.5S333.8,49,320.3,49H109.7
	c-9-19.1-28.3-31.6-49.8-31.6c-30.3,0-55,24.7-55,55c0,20.7,11.4,39.2,29.4,48.7v287.2c-18,9.4-29.4,28-29.4,48.7
	c0,30.3,24.7,55,55,55c20.9,0,40-12,49.2-30.5h292.6C411,500,430.1,512,451,512c30.3,0,55-24.7,55-55C506,434.2,492,414,471.1,405.8
	z M114.5,65.4h205.8c4.5,0,8.2,3.7,8.2,8.2s-3.7,8.2-8.2,8.2H114.1c0.5-3.1,0.8-6.2,0.8-9.3C114.9,70.1,114.8,67.7,114.5,65.4z
	 M146,252.7c4.5,0,8.2,3.7,8.2,8.2c0,4.5-3.7,8.2-8.2,8.2H75.2c-4.5,0-8.2,3.7-8.2,8.2c0,0,0,0,0,0v125.2c-2.3-0.3-4.7-0.5-7.1-0.5
	c-3.1,0-6.2,0.3-9.3,0.8V126.7c3.1,0.5,6.2,0.8,9.3,0.8c2.4,0,4.7-0.2,7.1-0.5v117.6c0,4.5,3.7,8.2,8.2,8.2c0,0,0,0,0,0L146,252.7
	L146,252.7z M21.2,72.4c0-21.3,17.3-38.7,38.7-38.7c16.5,0,31.2,10.5,36.6,26.1c1.4,4.1,2.1,8.3,2.1,12.6c0,5-0.9,9.8-2.8,14.4v0
	c-5.9,14.7-20.1,24.3-35.9,24.3c-5,0-9.8-0.9-14.4-2.8l0,0C30.8,102.4,21.2,88.3,21.2,72.4z M96.2,470.5L96.2,470.5
	c-5.6,15.1-20.2,25.2-36.3,25.2c-21.3,0-38.7-17.3-38.7-38.7c0-15.9,9.5-30,24.3-35.9l0,0c4.6-1.8,9.5-2.8,14.4-2.8
	c4.3,0,8.5,0.7,12.6,2.1c11,3.8,19.6,12.2,23.7,23.1c1.6,4.3,2.4,8.9,2.4,13.5S97.8,466.2,96.2,470.5z M396.6,465.2H114.3
	c0.4-2.7,0.6-5.4,0.6-8.2s-0.2-5.5-0.6-8.2h124.3c4.5,0,8.2-3.7,8.2-8.2c0,0,0,0,0,0v-88.2c0-4.5,3.7-8.2,8.2-8.2
	c4.5,0,8.2,3.7,8.2,8.2v88.2c0,4.5,3.7,8.2,8.2,8.2c0,0,0,0,0,0h125.3c-0.4,2.7-0.6,5.4-0.6,8.2S396.2,462.5,396.6,465.2
	L396.6,465.2z M438.5,178.1c0-4.5,3.7-8.2,8.2-8.2c4.5,0,8.2,3.7,8.2,8.2v224c-5.5-0.4-11,0-16.3,1.3L438.5,178.1L438.5,178.1z
	 M451,495.7c-16.1,0-30.6-10.1-36.3-25.2l0,0c-1.6-4.3-2.4-8.9-2.4-13.5s0.8-9.2,2.4-13.5c3.5-9.3,10.3-16.8,19.2-21.2
	c5.3-2.6,11.1-4,17.1-4c3.3,0,6.7,0.4,9.9,1.3c16.9,4.5,28.8,19.8,28.8,37.4C489.7,478.3,472.3,495.7,451,495.7z"/>
<path class="st1" d="M504.7,45.5L461.6,2.4c-3.2-3.2-8.4-3.2-11.6,0L253.7,198.8L210.5,242c0,0-0.1,0.1-0.1,0.1
	c-0.1,0.1-0.2,0.3-0.4,0.4c0,0-0.1,0.1-0.1,0.1c0,0-0.1,0.1-0.1,0.1c-0.2,0.2-0.3,0.4-0.4,0.6c0,0-0.1,0.1-0.1,0.1
	c-0.1,0.2-0.2,0.4-0.4,0.7c0,0-0.1,0.1-0.1,0.1c0,0.1-0.1,0.1-0.1,0.2c-0.1,0.2-0.1,0.3-0.2,0.5c0,0.1,0,0.1-0.1,0.2l-10.8,32.4
	L187.6,308L175.5,320c-3.2,3.2-3.2,8.4,0,11.6c3.2,3.2,8.4,3.2,11.6,0l0,0l11.9-11.9l63-21c0.1,0,0.1,0,0.2-0.1
	c0.2-0.1,0.3-0.1,0.5-0.2c0.1,0,0.1-0.1,0.2-0.1c0.1,0,0.1-0.1,0.2-0.1c0.1-0.1,0.3-0.1,0.4-0.2c0.1-0.1,0.2-0.1,0.3-0.2
	c0.3-0.2,0.5-0.3,0.7-0.5c0,0,0.1-0.1,0.1-0.1c0,0,0.1-0.1,0.1-0.1c0.1-0.1,0.3-0.2,0.4-0.3c0,0,0.1-0.1,0.1-0.1L373,188.9
	c0.1-0.1,0.3-0.3,0.4-0.4L504.7,57.1C507.9,53.9,507.9,48.7,504.7,45.5C504.7,45.5,504.7,45.5,504.7,45.5z M207.6,299.6l5.6-16.8
	l6.6-19.8l24.4,24.4L207.6,299.6L207.6,299.6z M361.4,177.3c-0.1,0.1-0.3,0.3-0.4,0.4L259.4,279.4l-31.6-31.6l37.4-37.4L455.8,19.7
	l31.6,31.6L361.4,177.3z"/>
</svg>
